<svg xmlns="http://www.w3.org/2000/svg" width="24" height="24" viewBox="0 0 24 24">
    <path fill-rule="evenodd" clip-rule="evenodd"
        d="M16.5019 12.75C14.4298 12.75 12.75 14.4298 12.75 16.5019C12.75 18.574 14.4298 20.2537 16.5019 20.2537C18.574 20.2537 20.2537 18.574 20.2537 16.5019C20.2537 14.4298 18.574 12.75 16.5019 12.75ZM11.25 16.5019C11.25 13.6013 13.6013 11.25 16.5019 11.25C19.4024 11.25 21.7537 13.6013 21.7537 16.5019C21.7537 19.4024 19.4024 21.7537 16.5019 21.7537C13.6013 21.7537 11.25 19.4024 11.25 16.5019Z" />
    <path fill-rule="evenodd" clip-rule="evenodd"
        d="M14.5341 7.46772C14.827 7.76061 14.827 8.23548 14.5341 8.52838L6.35911 16.7034L5.82878 16.173L6.3591 16.7034C5.9691 17.0934 5.75 17.6223 5.75 18.1739C5.75 18.7254 5.9691 19.2544 6.3591 19.6444L5.82962 20.1739L6.35911 19.6444C6.74911 20.0344 7.27806 20.2535 7.82961 20.2535C8.38115 20.2535 8.91011 20.0344 9.30011 19.6444L9.83044 20.1747L9.30011 19.6444L11.6657 17.2788C11.9586 16.9859 12.4334 16.9859 12.7263 17.2788C13.0192 17.5717 13.0192 18.0466 12.7263 18.3395L10.3608 20.705C9.68947 21.3763 8.77898 21.7535 7.82961 21.7535C6.88024 21.7535 5.96975 21.3763 5.29845 20.705C4.62714 20.0337 4.25 19.1232 4.25 18.1739C4.25 17.2245 4.62714 16.314 5.29845 15.6427L13.4734 7.46772C13.7663 7.17482 14.2412 7.17482 14.5341 7.46772Z" />
    <path fill-rule="evenodd" clip-rule="evenodd"
        d="M15.0553 3.74609C13.9409 3.74609 12.8722 4.18878 12.0842 4.97678L11.5538 4.44645L12.0842 4.97678L3.53033 13.5306C3.23744 13.8235 2.76256 13.8235 2.46967 13.5306C2.17678 13.2377 2.17678 12.7629 2.46967 12.47L11.0235 3.91612C12.0928 2.84682 13.5431 2.24609 15.0553 2.24609C16.5675 2.24609 18.0178 2.84682 19.0871 3.91612C20.1564 4.98541 20.7571 6.43569 20.7571 7.94791C20.7571 9.46012 20.1564 10.9104 19.0871 11.9797L18.3437 12.7231C18.0508 13.016 17.5759 13.016 17.283 12.7231C16.9901 12.4302 16.9901 11.9554 17.283 11.6625L18.0264 10.919L18.4888 11.3814L18.0264 10.919C18.8144 10.131 19.2571 9.0623 19.2571 7.94791C19.2571 6.83352 18.8144 5.76477 18.0264 4.97678C17.2384 4.18878 16.1697 3.74609 15.0553 3.74609Z" />
    <path fill-rule="evenodd" clip-rule="evenodd"
        d="M14.2578 16.5015C14.2578 16.0873 14.5936 15.7515 15.0078 15.7515H18.0091C18.4233 15.7515 18.7591 16.0873 18.7591 16.5015C18.7591 16.9157 18.4233 17.2515 18.0091 17.2515H15.0078C14.5936 17.2515 14.2578 16.9157 14.2578 16.5015Z" />
    <path fill-rule="evenodd" clip-rule="evenodd"
        d="M16.5078 14.251C16.922 14.251 17.2578 14.5868 17.2578 15.001V18.0022C17.2578 18.4164 16.922 18.7522 16.5078 18.7522C16.0936 18.7522 15.7578 18.4164 15.7578 18.0022V15.001C15.7578 14.5868 16.0936 14.251 16.5078 14.251Z" />
</svg>