<svg width="32" height="32" viewBox="0 0 32 32" xmlns="http://www.w3.org/2000/svg">
    <path
        d="M14.7308 8.49988H17.2692V14.9999H26.7308C27.0674 14.9999 27.3902 14.8654 27.6283 14.626C27.8663 14.3865 28 14.0617 28 13.7231V9.77667C28 9.43804 27.8663 9.11329 27.6283 8.87384C27.3902 8.63439 27.0674 8.49988 26.7308 8.49988H23.2796C23.747 7.53161 23.8558 6.42744 23.5866 5.38569C23.3174 4.34395 22.6878 3.4329 21.8108 2.81619C20.9339 2.19947 19.867 1.91751 18.802 2.02094C17.737 2.12438 16.7435 2.60643 16 3.38051C15.2552 2.61067 14.2626 2.13235 13.1995 2.03103C12.1364 1.92971 11.0721 2.212 10.1969 2.82745C9.32168 3.4429 8.69255 4.3514 8.42195 5.39056C8.15135 6.42972 8.25693 7.53182 8.71981 8.49988H5.26923C4.93261 8.49988 4.60978 8.63439 4.37175 8.87384C4.13372 9.11329 4 9.43804 4 9.77667V13.7231C4 14.0617 4.13372 14.3865 4.37175 14.626C4.48961 14.7445 4.62953 14.8386 4.78352 14.9027C4.93751 14.9669 5.10255 14.9999 5.26923 14.9999H14.7308V8.49988ZM17.2692 6.52665C17.2692 6.13638 17.3843 5.75488 17.5998 5.43038C17.8153 5.10589 18.1217 4.85297 18.4801 4.70362C18.8385 4.55428 19.2329 4.5152 19.6134 4.59134C19.9939 4.66747 20.3435 4.85541 20.6178 5.13137C20.8921 5.40733 21.0789 5.75892 21.1546 6.14169C21.2303 6.52446 21.1915 6.92121 21.043 7.28177C20.8945 7.64233 20.6431 7.95051 20.3205 8.16733C19.998 8.38415 19.6187 8.49988 19.2308 8.49988H17.2692V6.52665ZM10.8077 6.52665C10.8077 6.00332 11.0144 5.50142 11.3822 5.13137C11.7501 4.76131 12.249 4.55342 12.7692 4.55342C13.2895 4.55342 13.7884 4.76131 14.1562 5.13137C14.5241 5.50142 14.7308 6.00332 14.7308 6.52665V8.49988H12.7692C12.249 8.49988 11.7501 8.29198 11.3822 7.92193C11.0144 7.55188 10.8077 7.04998 10.8077 6.52665ZM17.2692 28H24.8846C25.2212 28 25.5441 27.8655 25.7821 27.626C26.0201 27.3866 26.1538 27.0618 26.1538 26.7232V16.8571H17.2692V28ZM5.84615 26.7232C5.84615 27.0618 5.97988 27.3866 6.2179 27.626C6.45593 27.8655 6.77876 28 7.11538 28H14.7308V16.8571H5.84615V26.7232Z" />
</svg>