<svg width="25" height="25" viewBox="0 0 25 25" xmlns="http://www.w3.org/2000/svg">
    <path fill-rule="evenodd" clip-rule="evenodd"
        d="M17.4687 13.0771C15.3966 13.0771 13.7168 14.7569 13.7168 16.829C13.7168 18.9011 15.3966 20.5809 17.4687 20.5809C19.5408 20.5809 21.2205 18.9011 21.2205 16.829C21.2205 14.7569 19.5408 13.0771 17.4687 13.0771ZM12.2168 16.829C12.2168 13.9285 14.5681 11.5771 17.4687 11.5771C20.3692 11.5771 22.7205 13.9285 22.7205 16.829C22.7205 19.7296 20.3692 22.0809 17.4687 22.0809C14.5681 22.0809 12.2168 19.7296 12.2168 16.829Z" />
    <path fill-rule="evenodd" clip-rule="evenodd"
        d="M15.2246 16.8291C15.2246 16.4149 15.5604 16.0791 15.9746 16.0791H18.9759C19.3901 16.0791 19.7259 16.4149 19.7259 16.8291C19.7259 17.2433 19.3901 17.5791 18.9759 17.5791H15.9746C15.5604 17.5791 15.2246 17.2433 15.2246 16.8291Z" />
    <path fill-rule="evenodd" clip-rule="evenodd"
        d="M17.4746 14.5786C17.8888 14.5786 18.2246 14.9144 18.2246 15.3286V18.3299C18.2246 18.7441 17.8888 19.0799 17.4746 19.0799C17.0604 19.0799 16.7246 18.7441 16.7246 18.3299V15.3286C16.7246 14.9144 17.0604 14.5786 17.4746 14.5786Z" />
    <path
        d="M6.81094 22.4985H13.5798V21.3044H6.81094C6.47564 21.3044 6.19273 21.0391 6.19273 20.7023V5.10819C6.19273 4.78161 6.46516 4.50606 6.81094 4.50606H14.8162V7.5065C14.8162 8.49644 15.6439 9.30268 16.6603 9.30268H19.7409V11.701H20.9668V9.20063C20.9668 8.72097 20.7677 8.26172 20.4219 7.92493L15.9478 3.56715C15.8325 3.45489 15.6754 3.41407 15.5182 3.41407C15.3296 3.35283 15.1305 3.31201 14.921 3.31201H6.81094C5.79456 3.31201 4.9668 4.11825 4.9668 5.10819V20.6921C4.9668 21.6923 5.78409 22.4985 6.81094 22.4985ZM16.0421 5.35313L18.8607 8.09843H16.6498C16.3145 8.09843 16.0316 7.83308 16.0316 7.4963V5.35313H16.0421Z" />
</svg>