<?xml version="1.0" encoding="UTF-8"?>
<svg id="Layer_1" data-name="Layer 1" xmlns="http://www.w3.org/2000/svg" viewBox="0 0 199.14 21.01">
  <defs>
    <style>
      .cls-1 {
        fill: #010101;
      }
    </style>
  </defs>
  <path class="cls-1" d="M19.68,2.96c0,.9-.18,1.65-.53,2.26-.22,.41-.62,.89-1.2,1.44L9.24,14.96c-.2,.2-.29,.32-.29,.38,0,.21,.12,.32,.35,.32h10.18v5.1H3.7c-2.46,0-3.7-.9-3.7-2.7,0-1.53,.66-2.92,2-4.2L10.15,6.1c.21-.2,.32-.34,.32-.44,0-.21-.18-.32-.53-.32H.91V.23h15.93c1.9,0,2.85,.91,2.85,2.73Z"/>
  <path class="cls-1" d="M28.53,20.77h-6.63V.23h6.63V20.77Z"/>
  <path class="cls-1" d="M49.43,20.77h-15.52c-.96,0-1.7-.21-2.23-.65-.61-.51-.91-1.17-.91-1.99V.23h6.63V14.4c0,.47,.1,.8,.31,.98s.56,.28,1.07,.28h10.65v5.1Z"/>
  <path class="cls-1" d="M74.83,20.77h-6.98l-1.61-4.22h-7.39l-1.61,4.22h-6.98L57.84,2.49c.35-.86,.82-1.47,1.41-1.82,.72-.45,1.82-.67,3.29-.67,1.19,0,2.1,.13,2.73,.38,.88,.37,1.54,1.08,1.97,2.11l7.6,18.28Zm-10.18-8.92l-1.85-5.19c-.1-.29-.19-.44-.26-.44s-.17,.15-.26,.44l-1.85,5.19h4.22Z"/>
  <path class="cls-1" d="M98.52,17.34c0,.82-.21,1.53-.62,2.11-.72,1.04-2,1.56-3.84,1.56-2.01,0-3.5-.68-4.46-2.02l-7.42-10.47c-.23-.33-.42-.5-.56-.5-.27,0-.41,.2-.41,.59v12.18h-5.1V3.64c0-1.25,.47-2.19,1.41-2.82,.8-.55,1.87-.82,3.2-.82,2,0,3.44,.64,4.34,1.91l7.48,10.56c.23,.33,.42,.5,.56,.5,.22,0,.32-.17,.32-.5V.23h5.1V17.34Z"/>
  <path class="cls-1" d="M120.99,5.34h-7.33v15.43h-6.63V5.34h-7.33V.23h21.3V5.34Z"/>
  <path class="cls-1" d="M127.97,20.77h-5.81v-5.28h5.81v5.28Z"/>
  <path class="cls-1" d="M151.64,7.28c0,3.25-.62,5.4-1.85,6.45-.86,.74-2.06,1.12-3.61,1.12h-8.65v5.93h-6.63V4.11c0-1.25,.27-2.19,.82-2.82,.63-.7,1.54-1.06,2.73-1.06h11.35c1.98,0,3.41,.48,4.31,1.44,1.02,1.1,1.53,2.96,1.53,5.6Zm-6.63,.15c0-.74-.19-1.28-.57-1.6-.38-.32-1.08-.48-2.1-.48h-3.67c-.76,0-1.14,.4-1.14,1.2v3.2h4.75c1.13,0,1.87-.18,2.21-.54,.34-.36,.51-.95,.51-1.77Z"/>
  <path class="cls-1" d="M175.08,20.77h-7.98l-3.96-5.34c-.94-1.27-1.41-2.2-1.41-2.79v-.44c0-.68,.28-1.24,.84-1.67s1.27-.65,2.13-.65h1.06c.9,0,1.52-.21,1.85-.62,.29-.35,.44-.92,.44-1.7s-.16-1.37-.48-1.72c-.32-.34-.94-.51-1.86-.51h-3.67c-.47,0-.82,.11-1.06,.34-.23,.22-.35,.65-.35,1.28v13.82h-6.63V4.17c0-1.37,.26-2.35,.79-2.93,.59-.66,1.51-1,2.76-1h11.18c2.37,0,4,.67,4.9,2,.7,1.06,1.06,2.62,1.06,4.69s-.25,3.83-.76,5.05c-.72,1.7-2,2.55-3.81,2.55h-.88v.12l5.87,6.13Z"/>
  <path class="cls-1" d="M199.14,10.5c0,1.88-.11,3.35-.32,4.43-.35,1.72-1.01,3.04-1.98,3.95-.97,.91-2.36,1.52-4.18,1.83-1.13,.2-2.74,.29-4.81,.29s-3.68-.1-4.81-.29c-1.82-.31-3.21-.92-4.18-1.83-.97-.91-1.63-2.22-1.98-3.95-.22-1.08-.32-2.55-.32-4.43s.11-3.38,.32-4.46c.35-1.72,1.02-3.03,2-3.93,.98-.9,2.36-1.51,4.14-1.82,1.15-.2,2.77-.29,4.84-.29s3.69,.1,4.84,.29c1.78,.31,3.16,.92,4.14,1.82,.98,.9,1.64,2.21,2,3.93,.21,1.08,.32,2.56,.32,4.46Zm-6.81,0c0-1.08-.03-1.81-.09-2.2-.1-.61-.32-1.17-.67-1.7-.43-.63-.95-1.05-1.55-1.26-.47-.16-1.19-.23-2.17-.23s-1.68,.08-2.17,.23c-.63,.22-1.14,.64-1.55,1.26-.51,.76-.76,2.06-.76,3.9s.25,3.12,.76,3.9c.41,.63,.93,1.05,1.55,1.26,.49,.16,1.21,.23,2.17,.23s1.7-.08,2.17-.23c.61-.21,1.12-.64,1.55-1.26,.51-.74,.76-2.04,.76-3.9Z"/>
</svg>