<svg width="72" height="21" viewBox="0 0 72 21" fill="none" xmlns="http://www.w3.org/2000/svg">
<g clip-path="url(#clip0_701_2269)">
<path fill-rule="evenodd" clip-rule="evenodd" d="M38.7061 7.73943C38.8793 7.91557 40.4379 12.1118 40.6008 12.6299C40.7631 13.1849 40.9924 13.7174 41.2834 14.2152C41.8233 14.3395 41.8742 13.7904 42.0372 13.3552C42.9234 11.0032 44.2681 7.57365 44.9404 5.26311C45.409 4.14411 45.4497 3.84363 44.6042 3.84363C43.7587 3.84363 43.8504 4.40314 43.5143 5.12842C43.2188 6.50645 42.0779 9.41794 41.6603 10.7545C41.6603 10.9307 41.6603 10.9307 41.4463 10.9307C40.7435 8.94133 39.9285 6.50645 39.134 4.53783C38.92 4.15447 38.5431 4.07158 38.2885 4.93156C37.8606 6.29923 37.2698 7.92593 36.8114 9.25216C36.8114 9.25216 36.2613 10.9307 36.2205 11.0136C35.9292 10.5371 35.7159 10.0157 35.589 9.46975C34.9574 7.88449 34.4073 6.1749 33.8674 4.58964C33.735 4.28916 33.735 4.11302 33.4396 3.93689C33.1434 3.82528 32.8233 3.79665 32.5126 3.854C31.6773 3.98869 32.2172 4.67253 32.3903 5.18022C33.409 7.96738 34.5397 11.314 35.6705 13.9665C35.6969 14.0322 35.74 14.0897 35.7952 14.1331C35.8505 14.1765 35.916 14.2044 35.9852 14.2138C36.0544 14.2233 36.1248 14.214 36.1894 14.187C36.254 14.1599 36.3104 14.116 36.353 14.0597C36.516 13.7385 38.5839 7.73943 38.7061 7.73943Z" fill="white"/>
<path fill-rule="evenodd" clip-rule="evenodd" d="M0.157892 4.01963C0.115784 4.19223 0.130087 4.37409 0.198639 4.53769C0.371814 5.26297 -0.137524 13.5312 -0.00509576 13.8627C0.407238 14.0513 0.869536 14.0951 1.309 13.9871C1.51273 13.7695 1.43124 13.5623 1.43124 13.2203C1.43124 11.7594 1.55348 10.3503 1.55348 8.84793C1.60441 8.28843 1.64516 7.90506 1.64516 7.56315C1.64516 7.22123 1.64516 7.26267 1.72665 7.17978C1.80815 7.09689 3.14261 9.45924 3.27504 9.71827C3.52971 10.226 4.02886 11.0031 4.36502 11.604C4.87436 12.5469 5.12903 11.9045 5.25127 11.6869C5.54669 11.3035 7.82852 7.23159 7.99151 7.1487C8.14431 7.31448 8.14431 11.3864 8.14431 11.6869C8.14431 13.9145 7.88964 14.1321 9.27504 14.0389C9.70289 14.0389 9.74363 13.697 9.70289 13.3136C9.70289 12.5883 9.70289 11.7698 9.70289 11.0445C9.59083 9.20021 9.50934 7.09689 9.50934 5.26297C9.50934 5.04538 9.59083 4.22685 9.59083 4.10252C9.46612 3.95958 9.29719 3.86421 9.11196 3.83218C8.92673 3.80016 8.7363 3.83339 8.57216 3.92638C8.27674 4.10252 8.19525 4.48588 7.98132 4.74491C7.12564 6.28872 5.97453 8.03976 5.16978 9.50068C4.87436 10.0187 4.87436 9.8426 4.61969 9.50068C4.06961 8.68215 3.35653 7.27303 2.85738 6.4545L1.83871 4.74491C1.69711 4.44782 1.51539 4.17231 1.29881 3.92638C1.01358 3.71916 0.453308 3.88493 0.157892 4.01963Z" fill="white"/>
<path fill-rule="evenodd" clip-rule="evenodd" d="M53.9129 8.81672C54.2734 8.5175 54.7011 8.31361 55.1579 8.22323C55.6147 8.13284 56.0863 8.15875 56.5309 8.29866C57.8755 8.89961 58.0487 10.92 57.4579 11.9043C57.2062 12.288 56.8438 12.5827 56.4205 12.7478C55.9971 12.913 55.5339 12.9405 55.0946 12.8265C54.669 12.7411 54.2662 12.5645 53.9129 12.3084V8.81672ZM53.9129 7.3558C53.8494 6.22735 53.8494 5.09614 53.9129 3.9677C53.9129 3.50145 53.7499 3.41856 53.3221 3.58433C52.3034 4.0195 52.3034 3.84336 52.446 4.78623C52.5275 5.26284 52.446 10.7853 52.446 11.5624C52.446 13.0959 52.2321 13.4482 54.4222 14.0906C55.0459 14.2236 55.6895 14.227 56.3144 14.1006C56.9394 13.9742 57.5328 13.7205 58.0589 13.3549C60.2083 11.5624 59.6175 6.50618 55.6956 6.88954C55.3537 6.90836 55.0134 6.9499 54.6769 7.01388C54.5445 7.05532 54.0453 7.3558 53.9842 7.3558H53.9129Z" fill="white"/>
<path fill-rule="evenodd" clip-rule="evenodd" d="M24.2082 13.9555C24.3676 13.4152 24.4127 12.8467 24.3407 12.2874C24.299 11.701 24.299 11.1124 24.3407 10.526C24.4629 10.526 24.5953 10.7436 24.85 11.0026C25.1047 11.2616 27.2031 13.4893 27.5393 13.738C27.6566 13.849 27.798 13.9303 27.952 13.9753C28.106 14.0203 28.2682 14.0277 28.4256 13.997C28.721 13.997 29.1896 13.997 29.3526 13.7898C29.3526 13.4893 28.7617 13.0127 28.5071 12.7536C28.2524 12.4946 27.9264 12.1631 27.631 11.8108C26.9831 11.2308 26.3771 10.604 25.8178 9.93541C25.8178 9.84216 28.1301 7.86318 28.558 7.49018C28.721 7.31404 28.8941 7.27259 28.8534 7.01356C28.3291 6.84905 27.7682 6.84905 27.2439 7.01356C27.0402 7.10681 25.6446 8.3916 25.2677 8.73352C25.1454 8.85785 24.4222 9.63494 24.3407 9.59349C24.2184 9.19977 24.3407 3.84305 24.2592 3.54257C24.1777 3.2421 22.7414 3.71871 22.7821 4.23677C22.862 4.60077 22.9029 4.97247 22.9043 5.34541V12.7536C22.9043 13.0127 22.8228 13.7898 22.996 13.9141C23.3924 14.0171 23.806 14.0313 24.2082 13.9555Z" fill="white"/>
<path fill-rule="evenodd" clip-rule="evenodd" d="M13.2377 10.4431C13.7063 10.3188 15.2751 10.7021 15.3464 11.127C15.3871 11.5854 15.3871 12.0466 15.3464 12.505C15.051 12.8884 13.0238 13.6551 12.3515 12.2874C12.2609 12.0931 12.2139 11.8808 12.2139 11.6657C12.2139 11.4507 12.2609 11.2384 12.3515 11.0441C12.4493 10.8861 12.5788 10.7509 12.7315 10.6473C12.8842 10.5438 13.0567 10.4742 13.2377 10.4431ZM15.3871 9.92506C14.9913 9.65834 14.5486 9.47188 14.0832 9.37592C13.5033 9.31061 12.9166 9.35273 12.3515 9.50025C11.8757 9.63887 11.4561 9.92912 11.1545 10.3283C10.853 10.7275 10.6853 11.2146 10.6762 11.718C10.6671 12.2213 10.817 12.7144 11.1039 13.1246C11.3908 13.5349 11.7995 13.8406 12.27 13.997C13.0757 14.2765 13.9498 14.2765 14.7556 13.997C14.9287 13.9141 15.2649 13.6965 15.3871 13.6551C15.5094 13.6136 15.5603 13.9556 15.7233 14.0384C15.8863 14.1213 16.6503 14.0384 16.8642 13.8312C17.0781 13.624 17.1189 13.6551 16.9865 13.3546C16.7894 12.9581 16.7182 12.5092 16.7827 12.0698V8.98219C16.836 8.54501 16.731 8.10304 16.4873 7.73885C15.6826 6.11215 10.8337 6.75454 11.2208 8.13258C11.6079 9.51061 12.2394 7.65596 14.3786 7.91499C15.5298 8.03933 15.4075 9.15833 15.4075 9.92506H15.3871Z" fill="white"/>
<path fill-rule="evenodd" clip-rule="evenodd" d="M65.2508 9.71679H61.7568C61.8036 9.29136 61.9945 8.89575 62.2967 8.59778C62.6265 8.30355 63.041 8.12549 63.4783 8.09008C63.7062 8.07094 63.9354 8.0987 64.1524 8.17168C64.3695 8.24467 64.5698 8.3614 64.7415 8.51489C64.9143 8.65952 65.0507 8.84404 65.1393 9.05308C65.2279 9.26213 65.2661 9.48968 65.2508 9.71679ZM61.6651 10.8254C61.9198 10.7011 65.7398 10.8254 66.4325 10.8254C67.1252 10.8254 66.8094 8.51489 65.5463 7.57203C65.0302 7.18071 64.4159 6.94582 63.7742 6.89448C63.1325 6.84314 62.4896 6.97744 61.9197 7.28187C61.3499 7.5863 60.8763 8.04845 60.5536 8.61497C60.231 9.18149 60.0725 9.82926 60.0963 10.4835C60.0722 11.119 60.2175 11.7492 60.517 12.3074C60.8165 12.8656 61.259 13.3309 61.7975 13.654C62.9283 14.4311 65.9639 14.3897 66.3408 13.1878C66.8094 11.644 65.7092 12.5039 65.3221 12.6697C64.9966 12.8054 64.6535 12.8927 64.3035 12.9287C62.0522 13.1878 61.5021 11.1673 61.6651 10.8254Z" fill="white"/>
<path fill-rule="evenodd" clip-rule="evenodd" d="M46.376 9.71771C46.4117 9.27517 46.6095 8.86241 46.9302 8.56116C47.251 8.2599 47.6712 8.09211 48.1077 8.09101C48.9838 7.99776 50.0025 8.77484 49.8293 9.71771H46.376ZM46.2028 10.7538C46.4167 10.7538 50.3794 10.7538 50.9295 10.7538C51.4796 10.7538 51.3879 10.4119 51.3471 9.9871C51.3174 9.4118 51.1412 8.85423 50.8359 8.369C50.5306 7.88377 50.1066 7.48753 49.6054 7.21908C49.1043 6.95064 48.5431 6.8192 47.977 6.83764C47.4109 6.85608 46.8592 7.02377 46.376 7.32428C45.8326 7.65079 45.3883 8.12333 45.0917 8.68998C44.7952 9.25662 44.658 9.89544 44.6952 10.5362C44.6519 11.1688 44.792 11.8004 45.098 12.3528C45.4039 12.9053 45.8624 13.3544 46.4167 13.6446C47.8531 14.546 50.6748 14.1626 50.9295 13.1369C50.9295 12.8364 51.1332 12.1008 50.6748 12.2769C50.1211 12.5953 49.5183 12.816 48.8921 12.9297C48.5583 12.975 48.219 12.9526 47.8937 12.8637C47.5685 12.7748 47.2638 12.6211 46.9974 12.4116C46.6307 12.1111 46.0398 11.2097 46.2028 10.7538Z" fill="white"/>
<path fill-rule="evenodd" clip-rule="evenodd" d="M69.0822 13.9974C69.3369 13.7384 69.2961 13.614 69.2961 13.2307V12.1946C69.2961 10.8269 69.0414 8.5578 70.6 8.21588C70.9362 8.13299 71.0177 8.4231 71.4455 8.34021C71.6978 8.10997 71.8873 7.8173 71.9956 7.4906C71.9956 6.83784 70.9769 6.71351 70.0499 7.13832C69.7545 7.27301 69.51 7.73926 69.2961 7.78071C69.2961 7.39735 69.3776 7.23157 69.1229 6.88965C68.7964 6.92149 68.4804 7.02394 68.1959 7.19012C67.7783 7.39735 67.6968 7.39735 67.7783 7.9154C67.8598 8.43346 67.7783 11.9873 67.7783 12.837C67.819 14.1321 67.819 14.0907 69.0822 13.9974Z" fill="white"/>
<path fill-rule="evenodd" clip-rule="evenodd" d="M19.4137 13.955V13.8721C19.5319 12.8197 19.5626 11.7591 19.5054 10.7016C19.5054 9.88302 19.7091 8.5568 20.5953 8.29777C21.3084 8.03874 21.3492 8.72258 21.8178 8.29777C22.9077 7.13732 21.4408 6.67107 20.5546 7.05443C19.6684 7.43779 19.7906 7.73827 19.5359 7.82116C19.5155 7.65256 19.5155 7.48205 19.5359 7.31346C19.5359 7.09587 19.4442 7.09587 19.3627 6.97154C19.0361 6.96884 18.7152 7.05852 18.4358 7.23057C18.0181 7.39635 17.8857 7.43779 18.0181 7.95585C18.1077 8.75019 18.135 9.55053 18.0996 10.3493V12.7116C18.1913 13.9964 18.0181 14.0897 19.4137 13.955Z" fill="white"/>
<path fill-rule="evenodd" clip-rule="evenodd" d="M38.4111 15.3341C36.7295 15.5451 35.0759 15.9447 33.4807 16.5256C32.9816 16.7432 32.462 16.8676 31.9629 17.0851C30.9442 17.4685 29.9867 17.8104 28.9782 18.2042C28.642 18.3285 26.2379 19.0538 25.8203 19.147C23.7829 19.6547 20.7269 20.2557 18.7812 19.3542C17.8542 18.888 17.7625 20.3386 19.8712 20.8566C21.1043 21.0763 22.3697 21.0197 23.5792 20.6908C24.5979 20.4732 25.8203 20.0899 26.788 19.7894C27.7558 19.4889 28.8967 19.147 29.9459 18.8465C30.2006 18.7533 30.4043 18.6704 30.6997 18.5875L32.2583 18.1109C32.5537 18.028 32.7676 17.9037 33.0223 17.8104L34.6318 17.4271C34.9272 17.3442 35.1412 17.2613 35.3958 17.168C37.5286 16.7053 39.704 16.476 41.8848 16.4842C42.4247 16.4842 43.2295 16.6189 43.7795 16.7018C44.7982 16.8261 44.5741 16.277 43.9018 15.9247C42.1537 15.2434 40.2606 15.0398 38.4111 15.3341Z" fill="#F9CC46"/>
</g>
<defs>
<clipPath id="clip0_701_2269">
<rect width="72" height="21" fill="white"/>
</clipPath>
</defs>
</svg>
