<svg xmlns="http://www.w3.org/2000/svg" width="65" height="19" viewBox="0 0 65 19" fill="none">
    <g clip-path="url(#clip0_690_2710)">
        <path fill-rule="evenodd" clip-rule="evenodd"
            d="M34.9426 7.00239C35.099 7.16175 36.506 10.9584 36.6532 11.4271C36.7997 11.9293 37.0066 12.411 37.2693 12.8614C37.7567 12.9739 37.8027 12.477 37.9499 12.0833C38.7499 9.95532 39.9639 6.8524 40.5708 4.76191C40.9938 3.74948 41.0306 3.47762 40.2673 3.47762C39.504 3.47762 39.5868 3.98384 39.2833 4.64004C39.0166 5.88684 37.9866 8.52104 37.6096 9.73034C37.6096 9.8897 37.6096 9.8897 37.4165 9.8897C36.7819 8.08982 36.0462 5.88684 35.3289 4.1057C35.1358 3.75885 34.7955 3.68386 34.5656 4.46193C34.1793 5.69935 33.6459 7.17113 33.2321 8.37105C33.2321 8.37105 32.7355 9.8897 32.6987 9.9647C32.4357 9.53365 32.2432 9.06191 32.1285 8.56791C31.5584 7.13363 31.0618 5.58686 30.5744 4.15258C30.4548 3.88072 30.4548 3.72135 30.1881 3.56199C29.9208 3.46101 29.6318 3.43511 29.3512 3.487C28.5971 3.60886 29.0845 4.22757 29.2409 4.68692C30.1605 7.20863 31.1813 10.2366 32.2021 12.6364C32.226 12.6959 32.2649 12.7479 32.3147 12.7871C32.3646 12.8264 32.4238 12.8516 32.4863 12.8602C32.5487 12.8687 32.6123 12.8603 32.6706 12.8359C32.7289 12.8114 32.7798 12.7717 32.8183 12.7208C32.9654 12.4302 34.8323 7.00239 34.9426 7.00239Z"
            fill="white" />
        <path fill-rule="evenodd" clip-rule="evenodd"
            d="M0.142325 3.63737C0.10431 3.79353 0.117223 3.95807 0.17911 4.10608C0.335449 4.76229 -0.12437 12.243 -0.00481736 12.543C0.367429 12.7137 0.78478 12.7532 1.18152 12.6555C1.36544 12.4587 1.29187 12.2712 1.29187 11.9618C1.29187 10.64 1.40223 9.36511 1.40223 8.00583C1.44821 7.49961 1.485 7.15276 1.485 6.8434C1.485 6.53405 1.485 6.57155 1.55857 6.49655C1.63214 6.42156 2.83686 8.55892 2.95642 8.79328C3.18633 9.25262 3.63695 9.9557 3.94043 10.4994C4.40025 11.3525 4.63016 10.7713 4.74051 10.5744C5.00721 10.2276 7.0672 6.54342 7.21434 6.46843C7.35229 6.61842 7.35229 10.3026 7.35229 10.5744C7.35229 12.5899 7.12238 12.7868 8.37308 12.7024C8.75933 12.7024 8.79612 12.393 8.75933 12.0462C8.75933 11.39 8.75933 10.6494 8.75933 9.9932C8.65817 8.32456 8.5846 6.42156 8.5846 4.76229C8.5846 4.56543 8.65817 3.82485 8.65817 3.71236C8.54559 3.58304 8.39307 3.49675 8.22585 3.46777C8.05863 3.43879 7.88672 3.46886 7.73853 3.553C7.47184 3.71236 7.39827 4.05921 7.20514 4.29357C6.43265 5.69036 5.39346 7.27463 4.66694 8.59641C4.40025 9.06513 4.40025 8.90577 4.17034 8.59641C3.67373 7.85584 3.02999 6.58092 2.57937 5.84034L1.65973 4.29357C1.5319 4.02477 1.36784 3.7755 1.17232 3.553C0.91482 3.36551 0.40902 3.5155 0.142325 3.63737Z"
            fill="white" />
        <path fill-rule="evenodd" clip-rule="evenodd"
            d="M48.671 7.97694C48.9965 7.70621 49.3826 7.52175 49.795 7.43997C50.2073 7.35819 50.6331 7.38164 51.0344 7.50822C52.2484 8.05193 52.4047 9.87994 51.8713 10.7705C51.6441 11.1176 51.3169 11.3842 50.9348 11.5337C50.5526 11.6831 50.1344 11.708 49.7378 11.6048C49.3536 11.5275 48.9899 11.3678 48.671 11.1361V7.97694ZM48.671 6.65515C48.6136 5.63418 48.6136 4.6107 48.671 3.58973C48.671 3.16788 48.5238 3.09289 48.1376 3.24288C47.2179 3.6366 47.218 3.47724 47.3467 4.3303C47.4203 4.76153 47.3467 9.75807 47.3467 10.4611C47.3467 11.8486 47.1536 12.1673 49.1308 12.7485C49.6938 12.8689 50.2749 12.872 50.839 12.7576C51.4032 12.6432 51.9389 12.4137 52.4139 12.0829C54.3543 10.4612 53.8209 5.88645 50.2803 6.2333C49.9717 6.25033 49.6645 6.28791 49.3607 6.3458C49.2412 6.38329 48.7905 6.65515 48.7354 6.65515H48.671Z"
            fill="white" />
        <path fill-rule="evenodd" clip-rule="evenodd"
            d="M21.8547 12.6268C21.9985 12.1379 22.0392 11.6236 21.9742 11.1175C21.9366 10.587 21.9366 10.0544 21.9742 9.52389C22.0846 9.52389 22.2041 9.72075 22.434 9.95511C22.6639 10.1895 24.5584 12.205 24.8619 12.43C24.9678 12.5304 25.0954 12.604 25.2344 12.6447C25.3734 12.6854 25.5199 12.6921 25.662 12.6643C25.9287 12.6643 26.3517 12.6643 26.4988 12.4768C26.4988 12.205 25.9654 11.7737 25.7355 11.5394C25.5056 11.305 25.2113 11.005 24.9446 10.6863C24.3597 10.1616 23.8126 9.5945 23.3077 8.98955C23.3077 8.90518 25.3953 7.11468 25.7815 6.7772C25.9287 6.61783 26.085 6.58034 26.0482 6.34598C25.5749 6.19713 25.0685 6.19713 24.5952 6.34598C24.4113 6.43035 23.1514 7.59277 22.8111 7.90212C22.7007 8.01462 22.0478 8.71769 21.9742 8.6802C21.8639 8.32397 21.9742 3.47741 21.9006 3.20556C21.8271 2.9337 20.5304 3.36492 20.5672 3.83364C20.6393 4.16297 20.6763 4.49927 20.6775 4.8367V11.5394C20.6775 11.7737 20.604 12.4768 20.7603 12.5893C21.1181 12.6825 21.4915 12.6953 21.8547 12.6268Z"
            fill="white" />
        <path fill-rule="evenodd" clip-rule="evenodd"
            d="M11.9506 9.44937C12.3736 9.33688 13.7898 9.68373 13.8542 10.0681C13.891 10.4828 13.891 10.9001 13.8542 11.3149C13.5875 11.6617 11.7574 12.3554 11.1505 11.118C11.0687 10.9422 11.0262 10.7501 11.0262 10.5555C11.0262 10.361 11.0687 10.1689 11.1505 9.99309C11.2388 9.85016 11.3557 9.72785 11.4936 9.63415C11.6315 9.54046 11.7872 9.47749 11.9506 9.44937ZM13.891 8.98065C13.5337 8.73933 13.134 8.57063 12.7139 8.48381C12.1904 8.42472 11.6607 8.46283 11.1505 8.5963C10.7209 8.72172 10.3422 8.98433 10.0699 9.34551C9.79766 9.7067 9.64629 10.1474 9.63805 10.6028C9.62981 11.0582 9.76515 11.5043 10.0242 11.8755C10.2832 12.2467 10.6522 12.5233 11.0769 12.6648C11.8043 12.9176 12.5934 12.9176 13.3208 12.6648C13.4772 12.5898 13.7806 12.3929 13.891 12.3554C14.0014 12.3179 14.0473 12.6273 14.1945 12.7023C14.3416 12.7773 15.0314 12.7023 15.2245 12.5148C15.4176 12.3273 15.4544 12.3554 15.3348 12.0836C15.1569 11.7249 15.0926 11.3187 15.1509 10.9212V8.12758C15.199 7.73203 15.1042 7.33216 14.8842 7.00266C14.1577 5.53088 9.78022 6.11209 10.1297 7.35888C10.4791 8.60568 11.0493 6.92766 12.9806 7.16202C14.0198 7.27451 13.9094 8.28695 13.9094 8.98065H13.891Z"
            fill="white" />
        <path fill-rule="evenodd" clip-rule="evenodd"
            d="M58.9067 8.7917H55.7523C55.7946 8.40679 55.9669 8.04886 56.2397 7.77927C56.5375 7.51306 56.9117 7.35196 57.3065 7.31993C57.5122 7.30261 57.7191 7.32772 57.9151 7.39375C58.111 7.45979 58.2919 7.5654 58.4469 7.70428C58.6029 7.83513 58.726 8.00207 58.806 8.19121C58.886 8.38035 58.9205 8.58622 58.9067 8.7917ZM55.6696 9.79476C55.8995 9.68227 59.3481 9.79476 59.9735 9.79476C60.5988 9.79476 60.3137 7.70428 59.1734 6.85121C58.7075 6.49716 58.1529 6.28464 57.5736 6.23819C56.9943 6.19174 56.4139 6.31324 55.8994 6.58868C55.385 6.86412 54.9574 7.28226 54.6662 7.79482C54.3749 8.30738 54.2318 8.89347 54.2533 9.48541C54.2315 10.0603 54.3627 10.6306 54.6331 11.1356C54.9035 11.6406 55.303 12.0616 55.7891 12.354C56.8099 13.057 59.5504 13.0195 59.8907 11.9321C60.3137 10.5353 59.3205 11.3134 58.9711 11.4634C58.6772 11.5862 58.3674 11.6651 58.0514 11.6978C56.019 11.9321 55.5224 10.1041 55.6696 9.79476Z"
            fill="white" />
        <path fill-rule="evenodd" clip-rule="evenodd"
            d="M41.8671 8.79286C41.8994 8.39247 42.0779 8.01903 42.3675 7.74646C42.657 7.4739 43.0364 7.32209 43.4305 7.32109C44.2214 7.23672 45.141 7.9398 44.9847 8.79286H41.8671ZM41.7108 9.7303C41.9039 9.7303 45.4813 9.7303 45.9779 9.7303C46.4745 9.7303 46.3917 9.42095 46.3549 9.0366C46.3281 8.51609 46.169 8.01162 45.8934 7.5726C45.6178 7.13359 45.235 6.77508 44.7825 6.5322C44.3301 6.28933 43.8236 6.1704 43.3125 6.18709C42.8014 6.20377 42.3034 6.35549 41.8671 6.62738C41.3766 6.92279 40.9754 7.35033 40.7077 7.86301C40.44 8.37569 40.3161 8.95367 40.3497 9.53344C40.3107 10.1058 40.4371 10.6772 40.7133 11.177C40.9896 11.6769 41.4035 12.0832 41.9039 12.3458C43.2006 13.1613 45.748 12.8145 45.9779 11.8864C45.9779 11.6146 46.1618 10.949 45.748 11.1083C45.2481 11.3964 44.7039 11.5961 44.1386 11.6989C43.8373 11.74 43.5309 11.7197 43.2373 11.6392C42.9437 11.5588 42.6686 11.4197 42.4281 11.2302C42.097 10.9583 41.5636 10.1428 41.7108 9.7303Z"
            fill="white" />
        <path fill-rule="evenodd" clip-rule="evenodd"
            d="M62.3658 12.6642C62.5957 12.4299 62.5589 12.3174 62.5589 11.9705V11.0331C62.5589 9.79566 62.329 7.74267 63.736 7.43332C64.0395 7.35832 64.1131 7.62081 64.4993 7.54581C64.7271 7.3375 64.8982 7.0727 64.9959 6.77711C64.9959 6.18653 64.0763 6.07403 63.2394 6.45838C62.9727 6.58025 62.752 7.0021 62.5589 7.0396C62.5589 6.69274 62.6325 6.54275 62.4025 6.2334C62.1078 6.26221 61.8224 6.3549 61.5657 6.50526C61.1886 6.69274 61.115 6.69274 61.1886 7.16146C61.2622 7.63018 61.1886 10.8456 61.1886 11.6143C61.2254 12.7861 61.2254 12.7486 62.3658 12.6642Z"
            fill="white" />
        <path fill-rule="evenodd" clip-rule="evenodd"
            d="M17.5261 12.6261V12.5511C17.6329 11.599 17.6606 10.6394 17.6089 9.6825C17.6089 8.94192 17.7928 7.742 18.5929 7.50764C19.2367 7.27328 19.2734 7.89199 19.6965 7.50764C20.6805 6.45771 19.3562 6.03587 18.5561 6.38272C17.756 6.72957 17.8664 7.00143 17.6365 7.07642C17.618 6.92389 17.618 6.76961 17.6365 6.61708C17.6365 6.42022 17.5537 6.42022 17.4801 6.30772C17.1853 6.30528 16.8955 6.38642 16.6433 6.54208C16.2662 6.69207 16.1467 6.72957 16.2662 7.19829C16.3471 7.91698 16.3717 8.6411 16.3398 9.36377V11.5011C16.4226 12.6636 16.2662 12.7479 17.5261 12.6261Z"
            fill="white" />
        <path fill-rule="evenodd" clip-rule="evenodd"
            d="M34.6763 13.8744C33.1581 14.0653 31.6654 14.4268 30.2252 14.9524C29.7746 15.1493 29.3056 15.2618 28.855 15.4586C27.9353 15.8055 27.0709 16.1148 26.1604 16.4711C25.8569 16.5836 23.6866 17.2398 23.3095 17.3241C21.4703 17.7835 18.7113 18.3272 16.9548 17.5116C16.118 17.0898 16.0352 18.4022 17.9388 18.8709C19.0521 19.0697 20.1945 19.0185 21.2863 18.7209C22.206 18.5241 23.3095 18.1772 24.1832 17.9054C25.0568 17.6335 26.0868 17.3241 27.0341 17.0523C27.264 16.9679 27.4479 16.8929 27.7146 16.8179L29.1216 16.3867C29.3883 16.3117 29.5815 16.1992 29.8114 16.1148L31.2644 15.768C31.5311 15.693 31.7242 15.618 31.9541 15.5336C33.8796 15.1149 35.8435 14.9075 37.8122 14.9149C38.2996 14.9149 39.0262 15.0368 39.5228 15.1118C40.4424 15.2243 40.2401 14.7274 39.6331 14.4087C38.055 13.7923 36.346 13.6081 34.6763 13.8744Z"
            fill="white" />
    </g>
    <defs>
        <clipPath id="clip0_690_2710">
            <rect width="65" height="19" fill="white" />
        </clipPath>
    </defs>
</svg>