<svg width="106" height="24" viewBox="0 0 106 24" fill="none" xmlns="http://www.w3.org/2000/svg">
<g clip-path="url(#clip0_823_2677)">
<path d="M33.1022 3.70965C32.908 2.99259 32.5293 2.33887 32.0036 1.81361C31.478 1.28835 30.8238 0.909868 30.1063 0.715862C27.4792 0 16.9074 0 16.9074 0C16.9074 0 6.33513 0.0217241 3.70853 0.737586C2.99102 0.931623 2.3369 1.31012 1.81129 1.83538C1.28569 2.36064 0.90695 3.01434 0.712786 3.73138C-0.0818001 8.39586 -0.39007 15.503 0.734524 19.9806C0.928688 20.6977 1.30743 21.3514 1.83303 21.8766C2.35863 22.4019 3.01276 22.7804 3.73027 22.9744C6.35708 23.6903 16.9291 23.6903 16.9291 23.6903C16.9291 23.6903 27.5012 23.6903 30.128 22.9744C30.8455 22.7804 31.4996 22.4019 32.0252 21.8766C32.5508 21.3514 32.9296 20.6977 33.1237 19.9806C33.9616 15.3097 34.22 8.20696 33.102 3.70986" fill="black"/>
<path d="M13.543 16.9216L22.3132 11.8452L13.543 6.76855V16.9216Z" fill="white"/>
<path d="M101.701 6.87745C102.852 6.87745 103.72 7.09428 104.328 7.50642C104.936 7.91876 105.37 8.56945 105.63 9.45911C105.891 10.3486 105.999 11.5632 105.999 13.1253V15.6637H100.42V16.4446L100.507 18.5923C100.572 19.0697 100.681 19.4168 100.854 19.6337C101.028 19.8507 101.31 19.9591 101.679 19.9591C102.179 19.9591 102.526 19.764 102.7 19.3736C102.895 18.983 102.982 18.3321 103.003 17.4426L105.891 17.6162C105.912 17.7463 105.912 17.9199 105.912 18.1368C105.912 19.5035 105.543 20.5233 104.784 21.1957C104.024 21.8681 102.982 22.2153 101.614 22.2153C99.9643 22.2153 98.8138 21.6948 98.1625 20.6752C97.5114 19.6554 97.164 18.0499 97.164 15.9023V13.2772C97.2377 9.58924 97.8867 6.88821 101.701 6.87745ZM61.5618 7.15945V18.0283C61.5618 18.6792 61.6268 19.1566 61.7788 19.4386C62.0871 20.0417 62.886 19.8875 63.3202 19.5904C63.5708 19.4211 63.7728 19.1893 63.9063 18.918V7.15924H67.2277V21.9766H64.6226L64.3404 20.1542H64.2754C63.5591 21.521 62.4951 22.2151 61.0842 22.2151C58.9125 22.2097 58.381 20.646 58.2545 19.0579L58.2462 18.9459C58.2306 18.7054 58.2214 18.4645 58.2187 18.2234V7.15945H61.5618ZM78.6899 7.15945V18.0283C78.6899 18.6792 78.755 19.1566 78.9069 19.4386C79.2154 20.0417 80.0141 19.8875 80.4483 19.5904C80.6989 19.4211 80.9009 19.1893 81.0344 18.918V7.15924H84.3558V21.9766H81.7507L81.4685 20.1542H81.4035C80.6872 21.521 79.6232 22.2151 78.2123 22.2151C76.0406 22.2097 75.5091 20.646 75.3826 19.0579L75.3743 18.9459C75.3587 18.7054 75.3495 18.4645 75.3468 18.2234V7.15945H78.6899ZM51.9231 6.87745C53.0085 6.87745 53.8986 7.09428 54.5499 7.54986C55.201 8.00545 55.7004 8.69979 56.0043 9.65421C56.3082 10.6088 56.4602 11.8887 56.4602 13.4725V15.6201C56.4602 17.2039 56.3082 18.4622 56.0043 19.4166C55.7004 20.3714 55.2227 21.0656 54.5499 21.5212C53.877 21.955 52.9651 22.1936 51.8363 22.1936C50.6639 22.2153 49.7522 21.9768 49.0793 21.5429C48.4064 21.0873 47.9286 20.393 47.6466 19.4386C47.3643 18.4839 47.234 17.2256 47.234 15.642V13.494C47.234 11.9102 47.386 10.6086 47.7117 9.654C48.0373 8.67786 48.5365 7.98352 49.2313 7.54986C49.9259 7.1158 50.8159 6.87724 51.9231 6.87724M89.5659 0.933105V8.74304H89.5877C89.8916 8.17904 90.2822 7.72345 90.8251 7.37628C91.3319 7.03567 91.9291 6.85438 92.5399 6.85573C93.3432 6.85573 93.951 7.07255 94.4069 7.48469C94.8628 7.91876 95.1885 8.59117 95.3837 9.52407C95.5731 10.4278 95.6808 11.6777 95.6874 13.2538L95.6876 13.4075V15.7504C95.6876 17.9414 95.4054 19.5687 94.8843 20.61C94.3419 21.6513 93.5169 22.1721 92.388 22.1721C91.7586 22.1721 91.194 22.0202 90.6731 21.7382C90.2124 21.4699 89.8304 21.0852 89.5655 20.6226L89.5224 20.5448H89.4574L89.11 21.955H86.353V0.933312L89.5659 0.933105ZM76.2801 1.69242V4.38228H72.9804V21.9766H69.7242V4.38248H66.4028V1.69262L76.2801 1.69242ZM40.4825 1.69242L40.4846 1.70069C40.5163 1.84159 40.9552 3.79159 41.438 6.06352L41.4761 6.24352L41.5336 6.51559L41.5721 6.69828L41.5914 6.78993L41.6299 6.97366L41.6492 7.06573L41.6875 7.25007L41.7434 7.51966C42.0694 9.0929 42.3806 10.6707 42.5667 11.802H42.6537C42.8319 10.7872 43.0909 9.48848 43.3671 8.16248L43.4396 7.81614C43.476 7.64276 43.5124 7.46938 43.5493 7.29642L43.606 7.02807C43.981 5.27086 44.3673 3.51607 44.7648 1.7638L44.771 1.73586L44.7809 1.69242H48.1023L44.2598 15.3817V21.955H40.9819V15.4032H40.9602L37.1611 1.69221L40.4825 1.69242ZM51.8579 9.1769C51.402 9.1769 51.0981 9.41566 50.9028 9.91469C50.7074 10.4135 50.6206 11.1728 50.6206 12.2361V16.8569C50.6206 17.9417 50.7074 18.7442 50.8811 19.2217C51.0548 19.6988 51.3805 19.9376 51.8579 19.9376C52.3138 19.9376 52.6394 19.6988 52.8348 19.2217C53.0303 18.7442 53.117 17.9417 53.117 16.8569V12.2359C53.117 11.1728 53.0301 10.3918 52.8348 9.91448C52.6394 9.41566 52.3138 9.1769 51.8579 9.1769ZM90.152 9.61097C89.8874 9.85511 89.6992 10.1561 89.5872 10.5325L89.5659 10.6088V19.0262C89.8351 19.4818 90.2172 19.7855 90.8901 19.8072C91.2375 19.8072 91.5195 19.6771 91.7368 19.4168C91.9538 19.1566 92.1058 18.7225 92.1925 18.115C92.276 17.532 92.3194 16.7288 92.3227 15.7059V13.6461C92.3227 12.4746 92.2793 11.5852 92.2143 10.956C92.1273 10.3268 92.019 9.87124 91.8236 9.61097C91.4458 9.06848 90.6296 9.07511 90.152 9.61097ZM101.636 9.11193C101.267 9.13366 101.006 9.24207 100.854 9.43738C100.681 9.65421 100.572 9.97966 100.507 10.457C100.443 10.9246 100.421 12.559 100.42 12.6244V13.6895H102.852V12.7502V12.7682C102.85 13.0966 102.843 12.5777 102.828 11.9406L102.826 11.855C102.813 11.2951 102.793 10.6709 102.765 10.457C102.7 9.95793 102.591 9.61076 102.417 9.41566C102.244 9.22035 101.983 9.11193 101.636 9.11193" fill="black"/>
</g>
<defs>
<clipPath id="clip0_823_2677">
<rect width="106" height="24" fill="white"/>
</clipPath>
</defs>
</svg>
